<svg xmlns="http://www.w3.org/2000/svg" width="24" height="24" viewBox="0 0 24 24" fill="none">
  <defs>
    <linearGradient id="citationGradient" x1="0%" y1="0%" x2="100%" y2="100%">
      <stop offset="0%" style="stop-color:#8B5CF6;stop-opacity:1" />
      <stop offset="100%" style="stop-color:#7C3AED;stop-opacity:1" />
    </linearGradient>
  </defs>
  <rect x="4" y="3" width="16" height="18" rx="2" fill="url(#citationGradient)" stroke="white" stroke-width="1"/>
  <rect x="6" y="6" width="8" height="1" rx="0.5" fill="white" opacity="0.9"/>
  <rect x="6" y="8" width="10" height="1" rx="0.5" fill="white" opacity="0.8"/>
  <rect x="6" y="10" width="7" height="1" rx="0.5" fill="white" opacity="0.7"/>
  <rect x="6" y="13" width="6" height="1" rx="0.5" fill="white" opacity="0.6"/>
  <rect x="6" y="15" width="9" height="1" rx="0.5" fill="white" opacity="0.5"/>
  <rect x="6" y="17" width="5" height="1" rx="0.5" fill="white" opacity="0.4"/>
  <path d="M7 6.5L8.5 8L7 9.5" stroke="#F59E0B" stroke-width="2" fill="none"/>
  <path d="M13 6.5L11.5 8L13 9.5" stroke="#F59E0B" stroke-width="2" fill="none"/>
  <circle cx="18" cy="5" r="2" fill="#10B981" stroke="white" stroke-width="1"/>
  <path d="M17 5l1 1l2-2" stroke="white" stroke-width="1.5" fill="none"/>
</svg>