<svg xmlns="http://www.w3.org/2000/svg" width="24" height="24" viewBox="0 0 24 24" fill="none">
  <defs>
    <linearGradient id="compressGradient" x1="0%" y1="0%" x2="100%" y2="100%">
      <stop offset="0%" style="stop-color:#DC2626;stop-opacity:1" />
      <stop offset="100%" style="stop-color:#B91C1C;stop-opacity:1" />
    </linearGradient>
  </defs>
  
  <!-- Main document shape -->
  <path d="M6 2h8l4 4v14a2 2 0 01-2 2H6a2 2 0 01-2-2V4a2 2 0 012-2z" fill="white" stroke="#DC2626" stroke-width="1"/>
  
  <!-- Folded corner -->
  <path d="M14 2v4h4" fill="none" stroke="#DC2626" stroke-width="1"/>
  <path d="M14 6h4l-4-4z" fill="#FEF2F2"/>
  
  <!-- Compression arrows -->
  <path d="M8 10l2-2m0 4l-2-2" stroke="#DC2626" stroke-width="1.5" fill="none" stroke-linecap="round" stroke-linejoin="round"/>
  <path d="M14 10l-2-2m0 4l2-2" stroke="#DC2626" stroke-width="1.5" fill="none" stroke-linecap="round" stroke-linejoin="round"/>
  
  <!-- PDF label -->
  <rect x="5" y="14" width="14" height="4" rx="2" fill="url(#compressGradient)"/>
  <text x="12" y="16.8" font-family="Arial, sans-serif" font-size="5" font-weight="bold" fill="white" text-anchor="middle">PDF</text>
  
  <!-- Compression indicator -->
  <circle cx="18" cy="19" r="2" fill="#10B981"/>
  <text x="18" y="20" font-family="Arial, sans-serif" font-size="2.5" font-weight="bold" fill="white" text-anchor="middle">↓</text>
</svg>
