<svg xmlns="http://www.w3.org/2000/svg" width="24" height="24" viewBox="0 0 24 24" fill="none">
  <defs>
    <linearGradient id="mergeGradient" x1="0%" y1="0%" x2="100%" y2="100%">
      <stop offset="0%" style="stop-color:#DC2626;stop-opacity:1" />
      <stop offset="100%" style="stop-color:#B91C1C;stop-opacity:1" />
    </linearGradient>
  </defs>
  
  <!-- First document (back) -->
  <path d="M4 4h6l2 2v10a1 1 0 01-1 1H5a1 1 0 01-1-1V5a1 1 0 011-1z" fill="white" stroke="#DC2626" stroke-width="1" opacity="0.8"/>
  <path d="M10 4v2h2" fill="none" stroke="#DC2626" stroke-width="1" opacity="0.8"/>
  
  <!-- Second document (front) -->
  <path d="M8 6h6l2 2v10a1 1 0 01-1 1H9a1 1 0 01-1-1V7a1 1 0 011-1z" fill="white" stroke="#DC2626" stroke-width="1"/>
  <path d="M14 6v2h2" fill="none" stroke="#DC2626" stroke-width="1"/>
  <path d="M14 8h2l-2-2z" fill="#FEF2F2"/>
  
  <!-- Merge arrow -->
  <circle cx="18" cy="12" r="3" fill="url(#mergeGradient)"/>
  <path d="M16.5 12h3m-1.5-1.5l1.5 1.5-1.5 1.5" stroke="white" stroke-width="1.5" fill="none" stroke-linecap="round" stroke-linejoin="round"/>
  
  <!-- PDF labels -->
  <rect x="5" y="12" width="6" height="2" rx="1" fill="url(#mergeGradient)"/>
  <text x="8" y="13.5" font-family="Arial, sans-serif" font-size="3" font-weight="bold" fill="white" text-anchor="middle">PDF</text>
</svg>
